<?xml version="1.0" encoding="UTF-8" standalone="no"?>
<svg
   width="67"
   height="34"
   viewBox="0 0 67 34"
   fill="none"
   version="1.1"
   id="svg8"
   sodipodi:docname="logo.svg"
   inkscape:version="1.1.2 (0a00cf5339, 2022-02-04)"
   xmlns:inkscape="http://www.inkscape.org/namespaces/inkscape"
   xmlns:sodipodi="http://sodipodi.sourceforge.net/DTD/sodipodi-0.dtd"
   xmlns="http://www.w3.org/2000/svg"
   xmlns:svg="http://www.w3.org/2000/svg">
  <defs
     id="defs12" />
  <sodipodi:namedview
     id="namedview10"
     pagecolor="#505050"
     bordercolor="#eeeeee"
     borderopacity="1"
     inkscape:pageshadow="0"
     inkscape:pageopacity="0"
     inkscape:pagecheckerboard="0"
     showgrid="false"
     inkscape:zoom="18.432836"
     inkscape:cx="32.930364"
     inkscape:cy="17.007692"
     inkscape:window-width="1920"
     inkscape:window-height="1029"
     inkscape:window-x="0"
     inkscape:window-y="28"
     inkscape:window-maximized="1"
     inkscape:current-layer="svg8" />
  <path
     d="m 7.7612011,4.9237707 c -1.9265304,0.1168 -4.6999704,0.8667 -5.7218604,2.4049 -0.52511,0.7904 -1.25885296,2.3867002 -0.77814,3.3956003 0.41515,0.8713 1.83134,1.2377 2.51689,0.9846 2.16993,-0.8012 4.3860504,-2.9968003 4.8939103,-5.2954003 0.01601,-0.0725 0.04244,-0.2877 0.0067,-0.2226 -0.15001,0.2733 -0.25072,0.571 -0.3709497,0.8586 -0.4732002,1.1321 -1.1088306,2.3763002 -1.1863806,3.6221003 -0.12152,1.9522 2.5985303,-0.1455 3.0417703,-0.588 1.0489,-1.0470003 1.8117,-2.3113003 2.603,-3.5504003 0.3808,-0.5963 0.7577,-0.4701 1.3256,-0.0542 1.1296,0.8274 1.7664,2.0979 1.9055,3.4777002 0.0759,0.7523001 0.0718,2.0470001 -0.8115,2.3651001 -0.4461,0.1606 -0.9186,-0.015 -1.2301,-0.3401 -0.5462,-0.57 0.4992,-0.1962 0.7408,-0.1936 2.6519,0.0276 4.2577,-1.8884001 5.5869,-3.9751003 1.2304,-1.9317 2.3973,-4.1974 3.1129,-6.3912 0.0497,-0.1521 0.0027,-0.52319999 -0.2362,-0.2724 -0.2129,0.2235 -0.4358,0.7735 -0.5231,0.9832 -0.2606,0.6264 -0.86,2.2413 -1.0596,2.7912 -0.6534,1.7997 -2.783,5.7576003 0.5128,6.2785003 1.6848,0.2662 2.8467,-0.9771 3.6274,-2.3033003 0.2919,-0.4958 0.6239,-1.3069 0.8045,-1.8796 0.0816,-0.2588 0.3415,-0.9173 0.0929,-0.8086 -0.4614,0.2018 -0.3641,1.0508 -0.1265,1.3518 0.608,0.7704 1.7871,0.7261 2.5937,0.3619 0.4626,-0.2089 0.8042,-0.556 1.0758,-0.972 0.0303,-0.0464 0.3462,-0.5479 0.4336,-0.5001 0.2648,0.145 -0.2533,1.9898 -0.2819,2.133 -0.1039,0.5201 -0.5665,1.6132003 -0.2053,2.1389003 0.8078,1.1757 3.4461,1.6437 4.7239,1.0128 1.3698,-0.6763 2.4731,-2.0588001 3.1549,-3.3933003 0.2297,-0.4495 -0.164,-1.7461 -0.6415,-2.2587 -0.5957,-0.6395 -3.0081,0.385 -3.3099,0.7204 -0.8739,0.9714 -1.4338,1.7793 -1.4369,3.1512002 -0.0025,1.1470001 2.0965,1.9575001 2.8493,1.6736001 1.3757,-0.5189 2.0512,-1.7114001 2.5246,-3.0261003 0.2029,-0.5635 0.6734,-2.2978 0.4726,-1.7336 -0.4416,1.2413 -0.8405,2.6551002 -0.7205,3.9855003 0.0354,0.3931 0.2566,0.6141 0.6343,0.7047 0.8249,0.1976 1.6078,-0.5178 2.067,-1.1045 0.482,-0.6160001 0.7882,-1.2914003 1.0838,-2.0074003 0.1524,-0.3691 0.1655,-0.8163 0.4246,-1.1202 0.1657,-0.1943 -0.0299,0.5123 -0.088,0.7609 -0.1614,0.6907 -0.3362,1.2156002 -0.5445,1.8941002 -0.0689,0.2244001 -0.1444,0.4469001 -0.2063,0.6733001 -0.029,0.1058 -0.1426,0.2436 -0.0662,0.3223 -0.890609,1.406892 0.176455,-0.0711 0.2551,-0.1278 0.2391,-0.1699 0.4598,-0.3642 0.6911,-0.5446 1.4182,-1.1060003 2.8644,-2.2554003 4.512,-3.0077003 0.5821,-0.2658 0.6648,-0.0398 0.7175,0.5367 0.0885,0.9678 -0.2059,1.8951002 -0.1751,2.8462003 0.0104,0.3229 0.3572,0.3677 0.5956,0.2293 0.8896,-0.5166 1.473,-1.6399001 1.9505,-2.5062003 0.1944,-0.3527 0.3495,-0.9169 0.7296,-1.1355 0.4945,-0.2843 -0.0527,0.6219 -0.0659,0.6535 -0.3878,0.9279 -1.0306,2.3502003 -0.476,3.3394003 0.4627,0.8255 1.9487,1.0885 2.7709,0.8267 1.3068,-0.4161 2.5872,-2.6836001 2.5827,-4.0799003 -0.006,-1.8741 -1.772033,-3.226316 -4.1357,-1.5304 -0.108221,0.07765 -1.185,1.1971 -1.1364,1.5871 0.0285,0.229 0.2862,0.3931 0.5008,0.4777 0.528,0.2083 1.0965,0.3162 1.6611,0.375 3.2186,0.3349 5.1728,0.3633002 7.6796,-2.0519 0.9058,-0.8728 1.3111,-1.7518 1.5408,-2.925 0.0386,-0.1975 0.3594,-1.8503 0.1625,-1.8093 -0.4371,0.0909 -2.2614,3.2147 -2.2761,3.2443 -0.9312,1.8716 -2.369392,3.169699 -2.386692,5.2739993 0.23637,1.414586 1.10275,1.657225 2.174727,1.59864 2.145626,-0.146553 2.972085,-1.062175 3.788065,-1.942639"
     stroke="#ffffff"
     stroke-width="1.8"
     stroke-linecap="round"
     id="path2"
     sodipodi:nodetypes="ccsccccscscccccccsccccccccsccsccscccscccccccsccccccccscccscscccccccccc" />
  <path
     d="m 57.468171,3.7585707 c 2.8178,-0.124 2.5661,1.9003 5.3737,1.6297"
     stroke="#ffffff"
     stroke-width="1.8"
     stroke-linecap="round"
     id="path4" />
  <path
     d="m 18.940271,3.3240707 c 2.75,0.2164 3.5314,0.7058 6.29,0.5883"
     stroke="#ffffff"
     stroke-width="1.8"
     stroke-linecap="round"
     id="path6" />
</svg>
